<?xml version="1.0" encoding="utf-8"?>
<svg version="1.1" xmlns:xlink="http://www.w3.org/1999/xlink" width="212px" height="342px" xmlns="http://www.w3.org/2000/svg">
  <g transform="matrix(1 0 0 1 -668 -83 )">
    <path d="M 669 93  A 9 9 0 0 1 678 84 L 870 84  A 9 9 0 0 1 879 93 L 879 415  A 9 9 0 0 1 870 424 L 678 424  A 9 9 0 0 1 669 415 L 669 93  Z " fill-rule="nonzero" fill="#f2f2f2" stroke="none" fill-opacity="0.0431372549019608" />
    <path d="M 668.5 93  A 9.5 9.5 0 0 1 678 83.5 L 870 83.5  A 9.5 9.5 0 0 1 879.5 93 L 879.5 415  A 9.5 9.5 0 0 1 870 424.5 L 678 424.5  A 9.5 9.5 0 0 1 668.5 415 L 668.5 93  Z " stroke-width="1" stroke-dasharray="3,1" stroke="#b8741a" fill="none" stroke-dashoffset="0.5" />
  </g>
</svg>