<?xml version="1.0" encoding="utf-8"?>
<svg version="1.1" xmlns:xlink="http://www.w3.org/1999/xlink" width="121px" height="77px" xmlns="http://www.w3.org/2000/svg">
  <g transform="matrix(1 0 0 1 -424 -156 )">
    <path d="M 425 166  A 9 9 0 0 1 434 157 L 535 157  A 9 9 0 0 1 544 166 L 544 223  A 9 9 0 0 1 535 232 L 434 232  A 9 9 0 0 1 425 223 L 425 166  Z " fill-rule="nonzero" fill="#f2f2f2" stroke="none" fill-opacity="0.0431372549019608" />
    <path d="M 424.5 166  A 9.5 9.5 0 0 1 434 156.5 L 535 156.5  A 9.5 9.5 0 0 1 544.5 166 L 544.5 223  A 9.5 9.5 0 0 1 535 232.5 L 434 232.5  A 9.5 9.5 0 0 1 424.5 223 L 424.5 166  Z " stroke-width="1" stroke-dasharray="3,1" stroke="#b8741a" fill="none" stroke-dashoffset="0.5" />
  </g>
</svg>