<?xml version="1.0" encoding="utf-8"?>
<svg version="1.1" xmlns:xlink="http://www.w3.org/1999/xlink" width="139px" height="26px" xmlns="http://www.w3.org/2000/svg">
  <g transform="matrix(1 0 0 1 -486 -335 )">
    <path d="M 487 345  A 9 9 0 0 1 496 336 L 615 336  A 9 9 0 0 1 624 345 L 624 351  A 9 9 0 0 1 615 360 L 496 360  A 9 9 0 0 1 487 351 L 487 345  Z " fill-rule="nonzero" fill="#f2f2f2" stroke="none" fill-opacity="0.0431372549019608" />
    <path d="M 486.5 345  A 9.5 9.5 0 0 1 496 335.5 L 615 335.5  A 9.5 9.5 0 0 1 624.5 345 L 624.5 351  A 9.5 9.5 0 0 1 615 360.5 L 496 360.5  A 9.5 9.5 0 0 1 486.5 351 L 486.5 345  Z " stroke-width="1" stroke-dasharray="3,1" stroke="#b8741a" fill="none" stroke-dashoffset="0.5" />
  </g>
</svg>