<?xml version="1.0" encoding="utf-8"?>
<svg version="1.1" xmlns:xlink="http://www.w3.org/1999/xlink" width="97px" height="27px" xmlns="http://www.w3.org/2000/svg">
  <g transform="matrix(1 0 0 1 -420 -129 )">
    <path d="M 421 139  A 9 9 0 0 1 430 130 L 507 130  A 9 9 0 0 1 516 139 L 516 146  A 9 9 0 0 1 507 155 L 430 155  A 9 9 0 0 1 421 146 L 421 139  Z " fill-rule="nonzero" fill="#f2f2f2" stroke="none" fill-opacity="0.0431372549019608" />
    <path d="M 420.5 139  A 9.5 9.5 0 0 1 430 129.5 L 507 129.5  A 9.5 9.5 0 0 1 516.5 139 L 516.5 146  A 9.5 9.5 0 0 1 507 155.5 L 430 155.5  A 9.5 9.5 0 0 1 420.5 146 L 420.5 139  Z " stroke-width="1" stroke-dasharray="3,1" stroke="#b8741a" fill="none" stroke-dashoffset="0.5" />
  </g>
</svg>