<?xml version="1.0" encoding="utf-8"?>
<svg version="1.1" xmlns:xlink="http://www.w3.org/1999/xlink" width="12px" height="12px" viewBox="278 219  12 12" xmlns="http://www.w3.org/2000/svg">
  <path d="M 284 219  C 287.36 219  290 221.64  290 225  C 290 228.36  287.36 231  284 231  C 280.64 231  278 228.36  278 225  C 278 221.64  280.64 219  284 219  Z " fill-rule="nonzero" fill="#ffffff" stroke="none" />
  <path d="M 284 219.5  C 287.08 219.5  289.5 221.92  289.5 225  C 289.5 228.08  287.08 230.5  284 230.5  C 280.92 230.5  278.5 228.08  278.5 225  C 278.5 221.92  280.92 219.5  284 219.5  Z " stroke-width="1" stroke="#797979" fill="none" />
  <path d="M 284 228  C 282.32 228  281 226.68  281 225  C 281 223.32  282.32 222  284 222  C 285.68 222  287 223.32  287 225  C 287 226.68  285.68 228  284 228  " fill-rule="nonzero" fill="#797979" stroke="none" />
</svg>