<?xml version="1.0" encoding="utf-8"?>
<svg version="1.1" xmlns:xlink="http://www.w3.org/1999/xlink" width="334px" height="340px" xmlns="http://www.w3.org/2000/svg">
  <g transform="matrix(1 0 0 1 -517 -291 )">
    <path d="M 518 301  A 9 9 0 0 1 527 292 L 841 292  A 9 9 0 0 1 850 301 L 850 621  A 9 9 0 0 1 841 630 L 527 630  A 9 9 0 0 1 518 621 L 518 301  Z " fill-rule="nonzero" fill="#f2f2f2" stroke="none" fill-opacity="0.0431372549019608" />
    <path d="M 517.5 301  A 9.5 9.5 0 0 1 527 291.5 L 841 291.5  A 9.5 9.5 0 0 1 850.5 301 L 850.5 621  A 9.5 9.5 0 0 1 841 630.5 L 527 630.5  A 9.5 9.5 0 0 1 517.5 621 L 517.5 301  Z " stroke-width="1" stroke-dasharray="3,1" stroke="#b8741a" fill="none" stroke-dashoffset="0.5" />
  </g>
</svg>