<?xml version="1.0" encoding="utf-8"?>
<svg version="1.1" xmlns:xlink="http://www.w3.org/1999/xlink" width="232px" height="38px" xmlns="http://www.w3.org/2000/svg">
  <g transform="matrix(1 0 0 1 -851 -243 )">
    <path d="M 852 253  A 9 9 0 0 1 861 244 L 1073 244  A 9 9 0 0 1 1082 253 L 1082 271  A 9 9 0 0 1 1073 280 L 861 280  A 9 9 0 0 1 852 271 L 852 253  Z " fill-rule="nonzero" fill="#f2f2f2" stroke="none" fill-opacity="0.0431372549019608" />
    <path d="M 851.5 253  A 9.5 9.5 0 0 1 861 243.5 L 1073 243.5  A 9.5 9.5 0 0 1 1082.5 253 L 1082.5 271  A 9.5 9.5 0 0 1 1073 280.5 L 861 280.5  A 9.5 9.5 0 0 1 851.5 271 L 851.5 253  Z " stroke-width="1" stroke-dasharray="3,1" stroke="#b8741a" fill="none" stroke-dashoffset="0.5" />
  </g>
</svg>