<?xml version="1.0" encoding="utf-8"?>
<svg version="1.1" xmlns:xlink="http://www.w3.org/1999/xlink" width="12px" height="12px" viewBox="274 207  12 12" xmlns="http://www.w3.org/2000/svg">
  <path d="M 280 207  C 283.36 207  286 209.64  286 213  C 286 216.36  283.36 219  280 219  C 276.64 219  274 216.36  274 213  C 274 209.64  276.64 207  280 207  Z " fill-rule="nonzero" fill="#f0f0f0" stroke="none" />
  <path d="M 280 207.5  C 283.08 207.5  285.5 209.92  285.5 213  C 285.5 216.08  283.08 218.5  280 218.5  C 276.92 218.5  274.5 216.08  274.5 213  C 274.5 209.92  276.92 207.5  280 207.5  Z " stroke-width="1" stroke="#797979" fill="none" />
  <path d="M 280 216  C 278.32 216  277 214.68  277 213  C 277 211.32  278.32 210  280 210  C 281.68 210  283 211.32  283 213  C 283 214.68  281.68 216  280 216  " fill-rule="nonzero" fill="#797979" stroke="none" />
</svg>