<?xml version="1.0" encoding="utf-8"?>
<svg version="1.1" xmlns:xlink="http://www.w3.org/1999/xlink" width="12px" height="12px" viewBox="117 207  12 12" xmlns="http://www.w3.org/2000/svg">
  <path d="M 123 207  C 126.36 207  129 209.64  129 213  C 129 216.36  126.36 219  123 219  C 119.64 219  117 216.36  117 213  C 117 209.64  119.64 207  123 207  Z " fill-rule="nonzero" fill="#f0f0f0" stroke="none" />
  <path d="M 123 207.5  C 126.08 207.5  128.5 209.92  128.5 213  C 128.5 216.08  126.08 218.5  123 218.5  C 119.92 218.5  117.5 216.08  117.5 213  C 117.5 209.92  119.92 207.5  123 207.5  Z " stroke-width="1" stroke="#797979" fill="none" />
  <path d="M 123 216  C 121.32 216  120 214.68  120 213  C 120 211.32  121.32 210  123 210  C 124.68 210  126 211.32  126 213  C 126 214.68  124.68 216  123 216  " fill-rule="nonzero" fill="#797979" stroke="none" />
</svg>