<?xml version="1.0" encoding="utf-8"?>
<svg version="1.1" xmlns:xlink="http://www.w3.org/1999/xlink" width="425px" height="214px" xmlns="http://www.w3.org/2000/svg">
  <g transform="matrix(1 0 0 1 -24 -106 )">
    <path d="M 25 116  A 9 9 0 0 1 34 107 L 439 107  A 9 9 0 0 1 448 116 L 448 310  A 9 9 0 0 1 439 319 L 34 319  A 9 9 0 0 1 25 310 L 25 116  Z " fill-rule="nonzero" fill="#f2f2f2" stroke="none" fill-opacity="0.0431372549019608" />
    <path d="M 24.5 116  A 9.5 9.5 0 0 1 34 106.5 L 439 106.5  A 9.5 9.5 0 0 1 448.5 116 L 448.5 310  A 9.5 9.5 0 0 1 439 319.5 L 34 319.5  A 9.5 9.5 0 0 1 24.5 310 L 24.5 116  Z " stroke-width="1" stroke-dasharray="3,1" stroke="#b8741a" fill="none" stroke-dashoffset="0.5" />
  </g>
</svg>