<?xml version="1.0" encoding="utf-8"?>
<svg version="1.1" xmlns:xlink="http://www.w3.org/1999/xlink" width="1137px" height="39px" xmlns="http://www.w3.org/2000/svg">
  <g transform="matrix(1 0 0 1 -28 -330 )">
    <path d="M 29 340  A 9 9 0 0 1 38 331 L 1155 331  A 9 9 0 0 1 1164 340 L 1164 359  A 9 9 0 0 1 1155 368 L 38 368  A 9 9 0 0 1 29 359 L 29 340  Z " fill-rule="nonzero" fill="#f2f2f2" stroke="none" fill-opacity="0.0431372549019608" />
    <path d="M 28.5 340  A 9.5 9.5 0 0 1 38 330.5 L 1155 330.5  A 9.5 9.5 0 0 1 1164.5 340 L 1164.5 359  A 9.5 9.5 0 0 1 1155 368.5 L 38 368.5  A 9.5 9.5 0 0 1 28.5 359 L 28.5 340  Z " stroke-width="1" stroke-dasharray="3,1" stroke="#b8741a" fill="none" stroke-dashoffset="0.5" />
  </g>
</svg>