<?xml version="1.0" encoding="utf-8"?>
<svg version="1.1" xmlns:xlink="http://www.w3.org/1999/xlink" width="32px" height="38px" xmlns="http://www.w3.org/2000/svg">
  <defs>
    <filter x="1115px" y="437px" width="32px" height="38px" filterUnits="userSpaceOnUse" id="filter48">
      <feOffset dx="1" dy="1" in="SourceAlpha" result="shadowOffsetInner" />
      <feGaussianBlur stdDeviation="2.5" in="shadowOffsetInner" result="shadowGaussian" />
      <feComposite in2="shadowGaussian" operator="atop" in="SourceAlpha" result="shadowComposite" />
      <feColorMatrix type="matrix" values="0 0 0 0 0  0 0 0 0 0  0 0 0 0 0  0 0 0 0.698039215686274 0  " in="shadowComposite" />
    </filter>
    <g id="widget49">
      <path d="M 1130 441  C 1136.16 441  1141 447.16  1141 455  C 1141 462.84  1136.16 469  1130 469  C 1123.84 469  1119 462.84  1119 455  C 1119 447.16  1123.84 441  1130 441  Z " fill-rule="nonzero" fill="#b8741a" stroke="none" />
      <path d="M 1130 441.5  C 1135.88 441.5  1140.5 447.44  1140.5 455  C 1140.5 462.56  1135.88 468.5  1130 468.5  C 1124.12 468.5  1119.5 462.56  1119.5 455  C 1119.5 447.44  1124.12 441.5  1130 441.5  Z " stroke-width="1" stroke="#ffffff" fill="none" />
    </g>
  </defs>
  <g transform="matrix(1 0 0 1 -1115 -437 )">
    <use xlink:href="#widget49" filter="url(#filter48)" />
    <use xlink:href="#widget49" />
  </g>
</svg>