<?xml version="1.0" encoding="utf-8"?>
<svg version="1.1" xmlns:xlink="http://www.w3.org/1999/xlink" width="930px" height="403px" xmlns="http://www.w3.org/2000/svg">
  <g transform="matrix(1 0 0 1 -229 -357 )">
    <path d="M 230 367  A 9 9 0 0 1 239 358 L 1149 358  A 9 9 0 0 1 1158 367 L 1158 750  A 9 9 0 0 1 1149 759 L 239 759  A 9 9 0 0 1 230 750 L 230 367  Z " fill-rule="nonzero" fill="#f2f2f2" stroke="none" fill-opacity="0.0431372549019608" />
    <path d="M 229.5 367  A 9.5 9.5 0 0 1 239 357.5 L 1149 357.5  A 9.5 9.5 0 0 1 1158.5 367 L 1158.5 750  A 9.5 9.5 0 0 1 1149 759.5 L 239 759.5  A 9.5 9.5 0 0 1 229.5 750 L 229.5 367  Z " stroke-width="1" stroke-dasharray="3,1" stroke="#b8741a" fill="none" stroke-dashoffset="0.5" />
  </g>
</svg>