<?xml version="1.0" encoding="utf-8"?>
<svg version="1.1" xmlns:xlink="http://www.w3.org/1999/xlink" width="200px" height="26px" xmlns="http://www.w3.org/2000/svg">
  <g transform="matrix(1 0 0 1 -897 -773 )">
    <path d="M 898 783  A 9 9 0 0 1 907 774 L 1087 774  A 9 9 0 0 1 1096 783 L 1096 789  A 9 9 0 0 1 1087 798 L 907 798  A 9 9 0 0 1 898 789 L 898 783  Z " fill-rule="nonzero" fill="#f2f2f2" stroke="none" fill-opacity="0.0431372549019608" />
    <path d="M 897.5 783  A 9.5 9.5 0 0 1 907 773.5 L 1087 773.5  A 9.5 9.5 0 0 1 1096.5 783 L 1096.5 789  A 9.5 9.5 0 0 1 1087 798.5 L 907 798.5  A 9.5 9.5 0 0 1 897.5 789 L 897.5 783  Z " stroke-width="1" stroke-dasharray="3,1" stroke="#b8741a" fill="none" stroke-dashoffset="0.5" />
  </g>
</svg>