<?xml version="1.0" encoding="utf-8"?>
<svg version="1.1" xmlns:xlink="http://www.w3.org/1999/xlink" width="280px" height="354px" xmlns="http://www.w3.org/2000/svg">
  <g transform="matrix(1 0 0 1 -901 -363 )">
    <path d="M 902 373  A 9 9 0 0 1 911 364 L 1171 364  A 9 9 0 0 1 1180 373 L 1180 707  A 9 9 0 0 1 1171 716 L 911 716  A 9 9 0 0 1 902 707 L 902 373  Z " fill-rule="nonzero" fill="#f2f2f2" stroke="none" fill-opacity="0.0431372549019608" />
    <path d="M 901.5 373  A 9.5 9.5 0 0 1 911 363.5 L 1171 363.5  A 9.5 9.5 0 0 1 1180.5 373 L 1180.5 707  A 9.5 9.5 0 0 1 1171 716.5 L 911 716.5  A 9.5 9.5 0 0 1 901.5 707 L 901.5 373  Z " stroke-width="1" stroke-dasharray="3,1" stroke="#b8741a" fill="none" stroke-dashoffset="0.5" />
  </g>
</svg>