<?xml version="1.0" encoding="utf-8"?>
<svg version="1.1" xmlns:xlink="http://www.w3.org/1999/xlink" width="182px" height="77px" xmlns="http://www.w3.org/2000/svg">
  <g transform="matrix(1 0 0 1 -108 -103 )">
    <path d="M 109 113  A 9 9 0 0 1 118 104 L 280 104  A 9 9 0 0 1 289 113 L 289 170  A 9 9 0 0 1 280 179 L 118 179  A 9 9 0 0 1 109 170 L 109 113  Z " fill-rule="nonzero" fill="#f2f2f2" stroke="none" fill-opacity="0.0431372549019608" />
    <path d="M 108.5 113  A 9.5 9.5 0 0 1 118 103.5 L 280 103.5  A 9.5 9.5 0 0 1 289.5 113 L 289.5 170  A 9.5 9.5 0 0 1 280 179.5 L 118 179.5  A 9.5 9.5 0 0 1 108.5 170 L 108.5 113  Z " stroke-width="1" stroke-dasharray="3,1" stroke="#b8741a" fill="none" stroke-dashoffset="0.5" />
  </g>
</svg>