<?xml version="1.0" encoding="utf-8"?>
<svg version="1.1" xmlns:xlink="http://www.w3.org/1999/xlink" width="120px" height="20px" xmlns="http://www.w3.org/2000/svg">
  <g transform="matrix(1 0 0 1 -423 -365 )">
    <path d="M 424 375  A 9 9 0 0 1 433 366 L 533 366  A 9 9 0 0 1 542 375 A 9 9 0 0 1 533 384 L 433 384  A 9 9 0 0 1 424 375 Z " fill-rule="nonzero" fill="#f2f2f2" stroke="none" fill-opacity="0.0431372549019608" />
    <path d="M 423.5 375  A 9.5 9.5 0 0 1 433 365.5 L 533 365.5  A 9.5 9.5 0 0 1 542.5 375 A 9.5 9.5 0 0 1 533 384.5 L 433 384.5  A 9.5 9.5 0 0 1 423.5 375 Z " stroke-width="1" stroke-dasharray="3,1" stroke="#b8741a" fill="none" stroke-dashoffset="0.5" />
  </g>
</svg>