<?xml version="1.0" encoding="utf-8"?>
<svg version="1.1" xmlns:xlink="http://www.w3.org/1999/xlink" width="51px" height="25px" xmlns="http://www.w3.org/2000/svg">
  <g transform="matrix(1 0 0 1 -24 -219 )">
    <path d="M 25 229  A 9 9 0 0 1 34 220 L 65 220  A 9 9 0 0 1 74 229 L 74 234  A 9 9 0 0 1 65 243 L 34 243  A 9 9 0 0 1 25 234 L 25 229  Z " fill-rule="nonzero" fill="#f2f2f2" stroke="none" fill-opacity="0.0431372549019608" />
    <path d="M 24.5 229  A 9.5 9.5 0 0 1 34 219.5 L 65 219.5  A 9.5 9.5 0 0 1 74.5 229 L 74.5 234  A 9.5 9.5 0 0 1 65 243.5 L 34 243.5  A 9.5 9.5 0 0 1 24.5 234 L 24.5 229  Z " stroke-width="1" stroke-dasharray="3,1" stroke="#b8741a" fill="none" stroke-dashoffset="0.5" />
  </g>
</svg>