<?xml version="1.0" encoding="utf-8"?>
<svg version="1.1" xmlns:xlink="http://www.w3.org/1999/xlink" width="102px" height="59px" xmlns="http://www.w3.org/2000/svg">
  <g transform="matrix(1 0 0 1 -310 -335 )">
    <path d="M 311 345  A 9 9 0 0 1 320 336 L 402 336  A 9 9 0 0 1 411 345 L 411 384  A 9 9 0 0 1 402 393 L 320 393  A 9 9 0 0 1 311 384 L 311 345  Z " fill-rule="nonzero" fill="#f2f2f2" stroke="none" fill-opacity="0.0431372549019608" />
    <path d="M 310.5 345  A 9.5 9.5 0 0 1 320 335.5 L 402 335.5  A 9.5 9.5 0 0 1 411.5 345 L 411.5 384  A 9.5 9.5 0 0 1 402 393.5 L 320 393.5  A 9.5 9.5 0 0 1 310.5 384 L 310.5 345  Z " stroke-width="1" stroke-dasharray="3,1" stroke="#b8741a" fill="none" stroke-dashoffset="0.5" />
  </g>
</svg>