<?xml version="1.0" encoding="utf-8"?>
<svg version="1.1" xmlns:xlink="http://www.w3.org/1999/xlink" width="221px" height="342px" xmlns="http://www.w3.org/2000/svg">
  <g transform="matrix(1 0 0 1 -647 -97 )">
    <path d="M 648 107  A 9 9 0 0 1 657 98 L 858 98  A 9 9 0 0 1 867 107 L 867 429  A 9 9 0 0 1 858 438 L 657 438  A 9 9 0 0 1 648 429 L 648 107  Z " fill-rule="nonzero" fill="#f2f2f2" stroke="none" fill-opacity="0.0431372549019608" />
    <path d="M 647.5 107  A 9.5 9.5 0 0 1 657 97.5 L 858 97.5  A 9.5 9.5 0 0 1 867.5 107 L 867.5 429  A 9.5 9.5 0 0 1 858 438.5 L 657 438.5  A 9.5 9.5 0 0 1 647.5 429 L 647.5 107  Z " stroke-width="1" stroke-dasharray="3,1" stroke="#b8741a" fill="none" stroke-dashoffset="0.5" />
  </g>
</svg>