<?xml version="1.0" encoding="utf-8"?>
<svg version="1.1" xmlns:xlink="http://www.w3.org/1999/xlink" width="203px" height="104px" xmlns="http://www.w3.org/2000/svg">
  <g transform="matrix(1 0 0 1 -656 -125 )">
    <path d="M 657 135  A 9 9 0 0 1 666 126 L 849 126  A 9 9 0 0 1 858 135 L 858 219  A 9 9 0 0 1 849 228 L 666 228  A 9 9 0 0 1 657 219 L 657 135  Z " fill-rule="nonzero" fill="#f2f2f2" stroke="none" fill-opacity="0.0431372549019608" />
    <path d="M 656.5 135  A 9.5 9.5 0 0 1 666 125.5 L 849 125.5  A 9.5 9.5 0 0 1 858.5 135 L 858.5 219  A 9.5 9.5 0 0 1 849 228.5 L 666 228.5  A 9.5 9.5 0 0 1 656.5 219 L 656.5 135  Z " stroke-width="1" stroke-dasharray="3,1" stroke="#b8741a" fill="none" stroke-dashoffset="0.5" />
  </g>
</svg>