<?xml version="1.0" encoding="utf-8"?>
<svg version="1.1" xmlns:xlink="http://www.w3.org/1999/xlink" width="425px" height="82px" xmlns="http://www.w3.org/2000/svg">
  <g transform="matrix(1 0 0 1 -208 -175 )">
    <path d="M 209 185  A 9 9 0 0 1 218 176 L 623 176  A 9 9 0 0 1 632 185 L 632 247  A 9 9 0 0 1 623 256 L 218 256  A 9 9 0 0 1 209 247 L 209 185  Z " fill-rule="nonzero" fill="#f2f2f2" stroke="none" fill-opacity="0.0431372549019608" />
    <path d="M 208.5 185  A 9.5 9.5 0 0 1 218 175.5 L 623 175.5  A 9.5 9.5 0 0 1 632.5 185 L 632.5 247  A 9.5 9.5 0 0 1 623 256.5 L 218 256.5  A 9.5 9.5 0 0 1 208.5 247 L 208.5 185  Z " stroke-width="1" stroke-dasharray="3,1" stroke="#b8741a" fill="none" stroke-dashoffset="0.5" />
  </g>
</svg>