<svg t="1701761590038" class="icon" viewBox="0 0 1024 1024" version="1.1" xmlns="http://www.w3.org/2000/svg" p-id="27541" width="200" height="200"><path d="M962.048 312.746667l-4.181333 2.773333-342.314667 197.674667 337.962667 195.2a42.666667 42.666667 0 0 1-38.186667 76.117333l-4.48-2.218667-380.629333-219.818666-206.933334 119.381333a170.666667 170.666667 0 1 1-148.394666-14.037333l2.133333-1.28 83.882667-47.146667 183.893333-106.197333-188.586667-108.885334L176.213333 357.12a42.624 42.624 0 0 1-10.88-9.130667A170.666667 170.666667 0 0 1 234.666667 21.333333a170.666667 170.666667 0 0 1 82.858666 319.914667l212.650667 122.666667 385.024-222.293334a42.666667 42.666667 0 0 1 46.848 71.168zM320 192a85.333333 85.333333 0 1 0-170.666667 0 85.333333 85.333333 0 0 0 170.666667 0z m0 635.733333a85.333333 85.333333 0 1 0-170.666667 0 85.333333 85.333333 0 0 0 170.666667 0z" fill="#515151" p-id="27542"></path></svg>