<svg t="1701687109821" class="icon" viewBox="0 0 1024 1024" version="1.1" xmlns="http://www.w3.org/2000/svg" p-id="7746" width="200" height="200"><path d="M1023.652016 511.787928a30.067541 30.067541 0 1 1-60.199055 0 451.588873 451.588873 0 1 0-42.670319 191.856499 30.067541 30.067541 0 0 1 54.505415 25.589397A511.787928 511.787928 0 1 1 1023.652016 511.787928z" fill="#333333" p-id="7747"></path><path d="M1023.652016 503.791242c0 22.070854-14.330062 39.983432-31.986746 39.983431s-31.986745-17.912577-31.986745-39.983431v-303.874083c0-22.070854 14.330062-39.983432 31.986745-39.983432s31.986745 17.912577 31.986746 39.983432v303.874083z" fill="#333333" p-id="7748"></path><path d="M285.781771 407.767032v233.247348a12.794698 12.794698 0 0 1-12.794698 12.794698H261.088003a12.794698 12.794698 0 0 1-12.794698-12.794698V457.858275a6.397349 6.397349 0 0 0-9.148209-5.757614l-29.555753 14.458009A12.218937 12.218937 0 0 1 191.996633 455.491256v-11.195361a12.794698 12.794698 0 0 1 7.676819-11.707149 269.968132 269.968132 0 0 0 27.380654-13.434433c7.356951-4.989932 16.249267-11.963043 26.612972-21.111252a12.794698 12.794698 0 0 1 8.444501-3.134701h10.875494c7.037084 0 12.794698 5.757614 12.794698 12.794698z m193.391863 3.902382c13.690327 13.050592 20.599464 29.235885 20.599464 48.619854 0 13.242513-2.75086 24.501847-8.316554 33.650056a57.896009 57.896009 0 0 1-27.764495 22.134828v1.087549a51.818528 51.818528 0 0 1 30.259461 21.750987c9.596024 12.346884 14.394035 26.548999 14.394036 42.798266 0 22.710589-7.868739 41.326875-23.670192 55.784884-16.31324 14.266088-38.831909 21.431119-67.683953 21.431119-29.043965 0-51.626607-7.165031-67.683954-21.431119a72.354018 72.354018 0 0 1-23.670191-55.784884c0-16.249267 4.798012-30.451382 14.458009-42.862239a51.818528 51.818528 0 0 1 30.195487-21.750987v-1.023576a57.896009 57.896009 0 0 1-27.828468-22.134828 64.613226 64.613226 0 0 1-8.252581-33.71403c0-19.319994 6.909137-35.505287 20.599465-48.55588 15.161717-14.521982 35.825155-21.750987 62.182233-21.750986 26.101184 0 46.828595 7.229004 62.182233 21.750986z m-98.263282 22.454696a36.017075 36.017075 0 0 0-11.643176 27.508601c0 12.602778 3.198675 22.390722 9.596024 29.427806 7.996686 8.700395 20.727411 13.050592 38.128201 13.050592 17.144896 0 29.87562-4.350197 38.1282-13.050592 6.397349-7.484898 9.596024-17.272843 9.596024-29.427806 0-10.875493-3.838409-20.023703-11.643175-27.508601-8.700395-8.444501-20.727411-12.666751-36.081049-12.666751-15.353638 0-27.380654 4.22225-36.081049 12.666751z m-4.478145 113.105132a45.293232 45.293232 0 0 0-13.690327 34.481712c0 13.498407 4.670065 24.3739 14.074168 32.62648 9.404103 8.444501 22.774563 12.666751 40.175353 12.666751 17.144896 0 30.771249-4.22225 40.87906-12.666751a42.926212 42.926212 0 0 0 13.434434-32.62648c0-14.521982-4.478144-25.909264-13.434434-34.097871-9.596024-9.404103-23.222377-14.138142-40.87906-14.138142-18.296418 0-31.794825 4.606091-40.49522 13.754301z m313.598053-118.862746c14.394035 23.926086 21.62304 55.912831 21.62304 96.02421 0 40.111379-7.229004 72.162098-21.62304 96.088183-15.993373 25.589396-38.384095 38.384095-66.980245 38.384095-28.59615 0-50.922899-12.794698-66.980245-38.384095-14.394035-23.926086-21.62304-55.976805-21.62304-96.088183 0-40.559193 7.229004-72.609912 21.62304-96.02421 15.801452-25.589396 38.128201-38.448068 66.980245-38.448068 28.788071 0 51.178793 12.794698 66.980245 38.384094z m-109.58659 30.06754c-5.949535 15.481585-8.956289 37.424492-8.956289 65.95667 0 28.276283 3.006754 50.283164 8.956289 66.020642 8.316554 23.414298 22.454695 35.18542 42.606345 35.18542 20.15165 0 34.353765-11.771122 42.606345-35.18542 5.949535-16.697081 8.956289-38.703962 8.956289-66.020642 0-27.764495-3.006754-49.771376-8.956289-65.95667-8.316554-23.414298-22.454695-35.18542-42.606345-35.18542-20.15165 0-34.353765 11.771122-42.606345 35.18542z m234.974633-91.098251a50.858925 50.858925 0 0 1 14.330062 36.27297c0 14.138142-4.798012 26.229131-14.330062 36.336943a46.316807 46.316807 0 0 1-34.737606 15.481584 44.333629 44.333629 0 0 1-34.353765-15.481584 48.427933 48.427933 0 0 1-14.713903-36.336943c0-14.649929 4.925959-26.740919 14.713903-36.27297a43.629921 43.629921 0 0 1 34.353765-15.481585c13.626354 0 25.269529 5.117879 34.737606 15.481585z m-51.946475 17.784631a26.037211 26.037211 0 0 0-7.292978 18.552312c0 7.101057 2.430993 13.306486 7.292978 18.488339a22.518669 22.518669 0 0 0 17.016949 7.356951 24.3739 24.3739 0 0 0 17.400789-7.356951 26.037211 26.037211 0 0 0 7.292978-18.552312 26.037211 26.037211 0 0 0-7.292978-18.488339 22.90251 22.90251 0 0 0-17.400789-7.356952 21.81496 21.81496 0 0 0-17.016949 7.356952z" fill="#333333" p-id="7749"></path></svg>