<?xml version="1.0" encoding="utf-8"?>
<svg version="1.1" xmlns:xlink="http://www.w3.org/1999/xlink" width="70px" height="43px" xmlns="http://www.w3.org/2000/svg">
  <g transform="matrix(1 0 0 1 -92 -764 )">
    <path d="M 93 774  A 9 9 0 0 1 102 765 L 152 765  A 9 9 0 0 1 161 774 L 161 797  A 9 9 0 0 1 152 806 L 102 806  A 9 9 0 0 1 93 797 L 93 774  Z " fill-rule="nonzero" fill="#f2f2f2" stroke="none" fill-opacity="0.0431372549019608" />
    <path d="M 92.5 774  A 9.5 9.5 0 0 1 102 764.5 L 152 764.5  A 9.5 9.5 0 0 1 161.5 774 L 161.5 797  A 9.5 9.5 0 0 1 152 806.5 L 102 806.5  A 9.5 9.5 0 0 1 92.5 797 L 92.5 774  Z " stroke-width="1" stroke-dasharray="3,1" stroke="#b8741a" fill="none" stroke-dashoffset="0.5" />
  </g>
</svg>