<?xml version="1.0" encoding="utf-8"?>
<svg version="1.1" xmlns:xlink="http://www.w3.org/1999/xlink" width="136px" height="38px" xmlns="http://www.w3.org/2000/svg">
  <g transform="matrix(1 0 0 1 -689 -782 )">
    <path d="M 690 792  A 9 9 0 0 1 699 783 L 815 783  A 9 9 0 0 1 824 792 L 824 810  A 9 9 0 0 1 815 819 L 699 819  A 9 9 0 0 1 690 810 L 690 792  Z " fill-rule="nonzero" fill="#f2f2f2" stroke="none" fill-opacity="0.0431372549019608" />
    <path d="M 689.5 792  A 9.5 9.5 0 0 1 699 782.5 L 815 782.5  A 9.5 9.5 0 0 1 824.5 792 L 824.5 810  A 9.5 9.5 0 0 1 815 819.5 L 699 819.5  A 9.5 9.5 0 0 1 689.5 810 L 689.5 792  Z " stroke-width="1" stroke-dasharray="3,1" stroke="#b8741a" fill="none" stroke-dashoffset="0.5" />
  </g>
</svg>