<?xml version="1.0" encoding="utf-8"?>
<svg version="1.1" xmlns:xlink="http://www.w3.org/1999/xlink" width="185px" height="51px" xmlns="http://www.w3.org/2000/svg">
  <g transform="matrix(1 0 0 1 -469 -877 )">
    <path d="M 470 887  A 9 9 0 0 1 479 878 L 644 878  A 9 9 0 0 1 653 887 L 653 918  A 9 9 0 0 1 644 927 L 479 927  A 9 9 0 0 1 470 918 L 470 887  Z " fill-rule="nonzero" fill="#f2f2f2" stroke="none" fill-opacity="0.0431372549019608" />
    <path d="M 469.5 887  A 9.5 9.5 0 0 1 479 877.5 L 644 877.5  A 9.5 9.5 0 0 1 653.5 887 L 653.5 918  A 9.5 9.5 0 0 1 644 927.5 L 479 927.5  A 9.5 9.5 0 0 1 469.5 918 L 469.5 887  Z " stroke-width="1" stroke-dasharray="3,1" stroke="#b8741a" fill="none" stroke-dashoffset="0.5" />
  </g>
</svg>