<?xml version="1.0" encoding="utf-8"?>
<svg version="1.1" xmlns:xlink="http://www.w3.org/1999/xlink" width="72px" height="67px" xmlns="http://www.w3.org/2000/svg">
  <g transform="matrix(1 0 0 1 -241 -196 )">
    <path d="M 242 206  A 9 9 0 0 1 251 197 L 303 197  A 9 9 0 0 1 312 206 L 312 253  A 9 9 0 0 1 303 262 L 251 262  A 9 9 0 0 1 242 253 L 242 206  Z " fill-rule="nonzero" fill="#f2f2f2" stroke="none" fill-opacity="0.0431372549019608" />
    <path d="M 241.5 206  A 9.5 9.5 0 0 1 251 196.5 L 303 196.5  A 9.5 9.5 0 0 1 312.5 206 L 312.5 253  A 9.5 9.5 0 0 1 303 262.5 L 251 262.5  A 9.5 9.5 0 0 1 241.5 253 L 241.5 206  Z " stroke-width="1" stroke-dasharray="3,1" stroke="#b8741a" fill="none" stroke-dashoffset="0.5" />
  </g>
</svg>