<?xml version="1.0" encoding="utf-8"?>
<svg version="1.1" xmlns:xlink="http://www.w3.org/1999/xlink" width="215px" height="54px" xmlns="http://www.w3.org/2000/svg">
  <g transform="matrix(1 0 0 1 -93 -64 )">
    <path d="M 94 74  A 9 9 0 0 1 103 65 L 298 65  A 9 9 0 0 1 307 74 L 307 108  A 9 9 0 0 1 298 117 L 103 117  A 9 9 0 0 1 94 108 L 94 74  Z " fill-rule="nonzero" fill="#f2f2f2" stroke="none" fill-opacity="0.0431372549019608" />
    <path d="M 93.5 74  A 9.5 9.5 0 0 1 103 64.5 L 298 64.5  A 9.5 9.5 0 0 1 307.5 74 L 307.5 108  A 9.5 9.5 0 0 1 298 117.5 L 103 117.5  A 9.5 9.5 0 0 1 93.5 108 L 93.5 74  Z " stroke-width="1" stroke-dasharray="3,1" stroke="#b8741a" fill="none" stroke-dashoffset="0.5" />
  </g>
</svg>