<?xml version="1.0" encoding="utf-8"?>
<svg version="1.1" xmlns:xlink="http://www.w3.org/1999/xlink" width="34px" height="27px" xmlns="http://www.w3.org/2000/svg">
  <g transform="matrix(1 0 0 1 -53 -116 )">
    <path d="M 54 126  A 9 9 0 0 1 63 117 L 77 117  A 9 9 0 0 1 86 126 L 86 133  A 9 9 0 0 1 77 142 L 63 142  A 9 9 0 0 1 54 133 L 54 126  Z " fill-rule="nonzero" fill="#f2f2f2" stroke="none" fill-opacity="0.0431372549019608" />
    <path d="M 53.5 126  A 9.5 9.5 0 0 1 63 116.5 L 77 116.5  A 9.5 9.5 0 0 1 86.5 126 L 86.5 133  A 9.5 9.5 0 0 1 77 142.5 L 63 142.5  A 9.5 9.5 0 0 1 53.5 133 L 53.5 126  Z " stroke-width="1" stroke-dasharray="3,1" stroke="#b8741a" fill="none" stroke-dashoffset="0.5" />
  </g>
</svg>