<?xml version="1.0" encoding="utf-8"?>
<svg version="1.1" xmlns:xlink="http://www.w3.org/1999/xlink" width="37px" height="26px" xmlns="http://www.w3.org/2000/svg">
  <g transform="matrix(1 0 0 1 -548 -109 )">
    <path d="M 549 119  A 9 9 0 0 1 558 110 L 575 110  A 9 9 0 0 1 584 119 L 584 125  A 9 9 0 0 1 575 134 L 558 134  A 9 9 0 0 1 549 125 L 549 119  Z " fill-rule="nonzero" fill="#f2f2f2" stroke="none" fill-opacity="0.0431372549019608" />
    <path d="M 548.5 119  A 9.5 9.5 0 0 1 558 109.5 L 575 109.5  A 9.5 9.5 0 0 1 584.5 119 L 584.5 125  A 9.5 9.5 0 0 1 575 134.5 L 558 134.5  A 9.5 9.5 0 0 1 548.5 125 L 548.5 119  Z " stroke-width="1" stroke-dasharray="3,1" stroke="#b8741a" fill="none" stroke-dashoffset="0.5" />
  </g>
</svg>