<?xml version="1.0" encoding="utf-8"?>
<svg version="1.1" xmlns:xlink="http://www.w3.org/1999/xlink" width="37px" height="46px" xmlns="http://www.w3.org/2000/svg">
  <g transform="matrix(1 0 0 1 -795 -340 )">
    <path d="M 796 350  A 9 9 0 0 1 805 341 L 822 341  A 9 9 0 0 1 831 350 L 831 376  A 9 9 0 0 1 822 385 L 805 385  A 9 9 0 0 1 796 376 L 796 350  Z " fill-rule="nonzero" fill="#f2f2f2" stroke="none" fill-opacity="0.0431372549019608" />
    <path d="M 795.5 350  A 9.5 9.5 0 0 1 805 340.5 L 822 340.5  A 9.5 9.5 0 0 1 831.5 350 L 831.5 376  A 9.5 9.5 0 0 1 822 385.5 L 805 385.5  A 9.5 9.5 0 0 1 795.5 376 L 795.5 350  Z " stroke-width="1" stroke-dasharray="3,1" stroke="#b8741a" fill="none" stroke-dashoffset="0.5" />
  </g>
</svg>