<?xml version="1.0" encoding="utf-8"?>
<svg version="1.1" xmlns:xlink="http://www.w3.org/1999/xlink" width="73px" height="69px" xmlns="http://www.w3.org/2000/svg">
  <g transform="matrix(1 0 0 1 -93 -1396 )">
    <path d="M 94 1406  A 9 9 0 0 1 103 1397 L 156 1397  A 9 9 0 0 1 165 1406 L 165 1455  A 9 9 0 0 1 156 1464 L 103 1464  A 9 9 0 0 1 94 1455 L 94 1406  Z " fill-rule="nonzero" fill="#f2f2f2" stroke="none" fill-opacity="0.0431372549019608" />
    <path d="M 93.5 1406  A 9.5 9.5 0 0 1 103 1396.5 L 156 1396.5  A 9.5 9.5 0 0 1 165.5 1406 L 165.5 1455  A 9.5 9.5 0 0 1 156 1464.5 L 103 1464.5  A 9.5 9.5 0 0 1 93.5 1455 L 93.5 1406  Z " stroke-width="1" stroke-dasharray="3,1" stroke="#b8741a" fill="none" stroke-dashoffset="0.5" />
  </g>
</svg>