<?xml version="1.0" encoding="utf-8"?>
<svg version="1.1" xmlns:xlink="http://www.w3.org/1999/xlink" width="72px" height="71px" xmlns="http://www.w3.org/2000/svg">
  <g transform="matrix(1 0 0 1 -249 -1690 )">
    <path d="M 250 1700  A 9 9 0 0 1 259 1691 L 311 1691  A 9 9 0 0 1 320 1700 L 320 1751  A 9 9 0 0 1 311 1760 L 259 1760  A 9 9 0 0 1 250 1751 L 250 1700  Z " fill-rule="nonzero" fill="#f2f2f2" stroke="none" fill-opacity="0.0431372549019608" />
    <path d="M 249.5 1700  A 9.5 9.5 0 0 1 259 1690.5 L 311 1690.5  A 9.5 9.5 0 0 1 320.5 1700 L 320.5 1751  A 9.5 9.5 0 0 1 311 1760.5 L 259 1760.5  A 9.5 9.5 0 0 1 249.5 1751 L 249.5 1700  Z " stroke-width="1" stroke-dasharray="3,1" stroke="#b8741a" fill="none" stroke-dashoffset="0.5" />
  </g>
</svg>