<?xml version="1.0" encoding="utf-8"?>
<svg version="1.1" xmlns:xlink="http://www.w3.org/1999/xlink" width="84px" height="122px" xmlns="http://www.w3.org/2000/svg">
  <g transform="matrix(1 0 0 1 -351 -1695 )">
    <path d="M 352 1705  A 9 9 0 0 1 361 1696 L 425 1696  A 9 9 0 0 1 434 1705 L 434 1807  A 9 9 0 0 1 425 1816 L 361 1816  A 9 9 0 0 1 352 1807 L 352 1705  Z " fill-rule="nonzero" fill="#f2f2f2" stroke="none" fill-opacity="0.0431372549019608" />
    <path d="M 351.5 1705  A 9.5 9.5 0 0 1 361 1695.5 L 425 1695.5  A 9.5 9.5 0 0 1 434.5 1705 L 434.5 1807  A 9.5 9.5 0 0 1 425 1816.5 L 361 1816.5  A 9.5 9.5 0 0 1 351.5 1807 L 351.5 1705  Z " stroke-width="1" stroke-dasharray="3,1" stroke="#b8741a" fill="none" stroke-dashoffset="0.5" />
  </g>
</svg>