<?xml version="1.0" encoding="utf-8"?>
<svg version="1.1" xmlns:xlink="http://www.w3.org/1999/xlink" width="12px" height="12px" viewBox="283 221  12 12" xmlns="http://www.w3.org/2000/svg">
  <path d="M 289 221  C 292.36 221  295 223.64  295 227  C 295 230.36  292.36 233  289 233  C 285.64 233  283 230.36  283 227  C 283 223.64  285.64 221  289 221  Z " fill-rule="nonzero" fill="#f0f0f0" stroke="none" />
  <path d="M 289 221.5  C 292.08 221.5  294.5 223.92  294.5 227  C 294.5 230.08  292.08 232.5  289 232.5  C 285.92 232.5  283.5 230.08  283.5 227  C 283.5 223.92  285.92 221.5  289 221.5  Z " stroke-width="1" stroke="#797979" fill="none" />
  <path d="M 289 230  C 287.32 230  286 228.68  286 227  C 286 225.32  287.32 224  289 224  C 290.68 224  292 225.32  292 227  C 292 228.68  290.68 230  289 230  " fill-rule="nonzero" fill="#797979" stroke="none" />
</svg>