<?xml version="1.0" encoding="utf-8"?>
<svg version="1.1" xmlns:xlink="http://www.w3.org/1999/xlink" width="94px" height="86px" xmlns="http://www.w3.org/2000/svg">
  <g transform="matrix(1 0 0 1 -322 -335 )">
    <path d="M 323 345  A 9 9 0 0 1 332 336 L 406 336  A 9 9 0 0 1 415 345 L 415 411  A 9 9 0 0 1 406 420 L 332 420  A 9 9 0 0 1 323 411 L 323 345  Z " fill-rule="nonzero" fill="#f2f2f2" stroke="none" fill-opacity="0.0431372549019608" />
    <path d="M 322.5 345  A 9.5 9.5 0 0 1 332 335.5 L 406 335.5  A 9.5 9.5 0 0 1 415.5 345 L 415.5 411  A 9.5 9.5 0 0 1 406 420.5 L 332 420.5  A 9.5 9.5 0 0 1 322.5 411 L 322.5 345  Z " stroke-width="1" stroke-dasharray="3,1" stroke="#b8741a" fill="none" stroke-dashoffset="0.5" />
  </g>
</svg>