<?xml version="1.0" encoding="utf-8"?>
<svg version="1.1" xmlns:xlink="http://www.w3.org/1999/xlink" width="47px" height="26px" xmlns="http://www.w3.org/2000/svg">
  <g transform="matrix(1 0 0 1 -241 -302 )">
    <path d="M 242 312  A 9 9 0 0 1 251 303 L 278 303  A 9 9 0 0 1 287 312 L 287 318  A 9 9 0 0 1 278 327 L 251 327  A 9 9 0 0 1 242 318 L 242 312  Z " fill-rule="nonzero" fill="#f2f2f2" stroke="none" fill-opacity="0.0431372549019608" />
    <path d="M 241.5 312  A 9.5 9.5 0 0 1 251 302.5 L 278 302.5  A 9.5 9.5 0 0 1 287.5 312 L 287.5 318  A 9.5 9.5 0 0 1 278 327.5 L 251 327.5  A 9.5 9.5 0 0 1 241.5 318 L 241.5 312  Z " stroke-width="1" stroke-dasharray="3,1" stroke="#b8741a" fill="none" stroke-dashoffset="0.5" />
  </g>
</svg>