<?xml version="1.0" encoding="utf-8"?>
<svg version="1.1" xmlns:xlink="http://www.w3.org/1999/xlink" width="334px" height="313px" xmlns="http://www.w3.org/2000/svg">
  <g transform="matrix(1 0 0 1 -517 -278 )">
    <path d="M 518 288  A 9 9 0 0 1 527 279 L 841 279  A 9 9 0 0 1 850 288 L 850 581  A 9 9 0 0 1 841 590 L 527 590  A 9 9 0 0 1 518 581 L 518 288  Z " fill-rule="nonzero" fill="#f2f2f2" stroke="none" fill-opacity="0.0431372549019608" />
    <path d="M 517.5 288  A 9.5 9.5 0 0 1 527 278.5 L 841 278.5  A 9.5 9.5 0 0 1 850.5 288 L 850.5 581  A 9.5 9.5 0 0 1 841 590.5 L 527 590.5  A 9.5 9.5 0 0 1 517.5 581 L 517.5 288  Z " stroke-width="1" stroke-dasharray="3,1" stroke="#b8741a" fill="none" stroke-dashoffset="0.5" />
  </g>
</svg>