<?xml version="1.0" encoding="utf-8"?>
<svg version="1.1" xmlns:xlink="http://www.w3.org/1999/xlink" width="227px" height="135px" xmlns="http://www.w3.org/2000/svg">
  <g transform="matrix(1 0 0 1 -861 -291 )">
    <path d="M 862 301  A 9 9 0 0 1 871 292 L 1078 292  A 9 9 0 0 1 1087 301 L 1087 416  A 9 9 0 0 1 1078 425 L 871 425  A 9 9 0 0 1 862 416 L 862 301  Z " fill-rule="nonzero" fill="#f2f2f2" stroke="none" fill-opacity="0.0431372549019608" />
    <path d="M 861.5 301  A 9.5 9.5 0 0 1 871 291.5 L 1078 291.5  A 9.5 9.5 0 0 1 1087.5 301 L 1087.5 416  A 9.5 9.5 0 0 1 1078 425.5 L 871 425.5  A 9.5 9.5 0 0 1 861.5 416 L 861.5 301  Z " stroke-width="1" stroke-dasharray="3,1" stroke="#b8741a" fill="none" stroke-dashoffset="0.5" />
  </g>
</svg>