<?xml version="1.0" encoding="utf-8"?>
<svg version="1.1" xmlns:xlink="http://www.w3.org/1999/xlink" width="249px" height="52px" xmlns="http://www.w3.org/2000/svg">
  <g transform="matrix(1 0 0 1 -567 -602 )">
    <path d="M 568 612  A 9 9 0 0 1 577 603 L 806 603  A 9 9 0 0 1 815 612 L 815 644  A 9 9 0 0 1 806 653 L 577 653  A 9 9 0 0 1 568 644 L 568 612  Z " fill-rule="nonzero" fill="#f2f2f2" stroke="none" fill-opacity="0.0431372549019608" />
    <path d="M 567.5 612  A 9.5 9.5 0 0 1 577 602.5 L 806 602.5  A 9.5 9.5 0 0 1 815.5 612 L 815.5 644  A 9.5 9.5 0 0 1 806 653.5 L 577 653.5  A 9.5 9.5 0 0 1 567.5 644 L 567.5 612  Z " stroke-width="1" stroke-dasharray="3,1" stroke="#b8741a" fill="none" stroke-dashoffset="0.5" />
  </g>
</svg>