<?xml version="1.0" encoding="utf-8"?>
<svg version="1.1" xmlns:xlink="http://www.w3.org/1999/xlink" width="418px" height="31px" xmlns="http://www.w3.org/2000/svg">
  <g transform="matrix(1 0 0 1 -155 -83 )">
    <path d="M 156 93  A 9 9 0 0 1 165 84 L 563 84  A 9 9 0 0 1 572 93 L 572 104  A 9 9 0 0 1 563 113 L 165 113  A 9 9 0 0 1 156 104 L 156 93  Z " fill-rule="nonzero" fill="#f2f2f2" stroke="none" fill-opacity="0.0431372549019608" />
    <path d="M 155.5 93  A 9.5 9.5 0 0 1 165 83.5 L 563 83.5  A 9.5 9.5 0 0 1 572.5 93 L 572.5 104  A 9.5 9.5 0 0 1 563 113.5 L 165 113.5  A 9.5 9.5 0 0 1 155.5 104 L 155.5 93  Z " stroke-width="1" stroke-dasharray="3,1" stroke="#b8741a" fill="none" stroke-dashoffset="0.5" />
  </g>
</svg>