<?xml version="1.0" encoding="utf-8"?>
<svg version="1.1" xmlns:xlink="http://www.w3.org/1999/xlink" width="137px" height="34px" xmlns="http://www.w3.org/2000/svg">
  <g transform="matrix(1 0 0 1 -219 -31 )">
    <path d="M 220 41  A 9 9 0 0 1 229 32 L 346 32  A 9 9 0 0 1 355 41 L 355 55  A 9 9 0 0 1 346 64 L 229 64  A 9 9 0 0 1 220 55 L 220 41  Z " fill-rule="nonzero" fill="#f2f2f2" stroke="none" fill-opacity="0.0431372549019608" />
    <path d="M 219.5 41  A 9.5 9.5 0 0 1 229 31.5 L 346 31.5  A 9.5 9.5 0 0 1 355.5 41 L 355.5 55  A 9.5 9.5 0 0 1 346 64.5 L 229 64.5  A 9.5 9.5 0 0 1 219.5 55 L 219.5 41  Z " stroke-width="1" stroke-dasharray="3,1" stroke="#b8741a" fill="none" stroke-dashoffset="0.5" />
  </g>
</svg>