<?xml version="1.0" encoding="utf-8"?>
<svg version="1.1" xmlns:xlink="http://www.w3.org/1999/xlink" width="207px" height="48px" xmlns="http://www.w3.org/2000/svg">
  <g transform="matrix(1 0 0 1 -296 -132 )">
    <path d="M 297 142  A 9 9 0 0 1 306 133 L 493 133  A 9 9 0 0 1 502 142 L 502 170  A 9 9 0 0 1 493 179 L 306 179  A 9 9 0 0 1 297 170 L 297 142  Z " fill-rule="nonzero" fill="#f2f2f2" stroke="none" fill-opacity="0.0431372549019608" />
    <path d="M 296.5 142  A 9.5 9.5 0 0 1 306 132.5 L 493 132.5  A 9.5 9.5 0 0 1 502.5 142 L 502.5 170  A 9.5 9.5 0 0 1 493 179.5 L 306 179.5  A 9.5 9.5 0 0 1 296.5 170 L 296.5 142  Z " stroke-width="1" stroke-dasharray="3,1" stroke="#b8741a" fill="none" stroke-dashoffset="0.5" />
  </g>
</svg>