<?xml version="1.0" encoding="utf-8"?>
<svg version="1.1" xmlns:xlink="http://www.w3.org/1999/xlink" width="123px" height="44px" xmlns="http://www.w3.org/2000/svg">
  <g transform="matrix(1 0 0 1 -478 -94 )">
    <path d="M 479 104  A 9 9 0 0 1 488 95 L 591 95  A 9 9 0 0 1 600 104 L 600 128  A 9 9 0 0 1 591 137 L 488 137  A 9 9 0 0 1 479 128 L 479 104  Z " fill-rule="nonzero" fill="#f2f2f2" stroke="none" fill-opacity="0.0431372549019608" />
    <path d="M 478.5 104  A 9.5 9.5 0 0 1 488 94.5 L 591 94.5  A 9.5 9.5 0 0 1 600.5 104 L 600.5 128  A 9.5 9.5 0 0 1 591 137.5 L 488 137.5  A 9.5 9.5 0 0 1 478.5 128 L 478.5 104  Z " stroke-width="1" stroke-dasharray="3,1" stroke="#b8741a" fill="none" stroke-dashoffset="0.5" />
  </g>
</svg>