<?xml version="1.0" encoding="utf-8"?>
<svg version="1.1" xmlns:xlink="http://www.w3.org/1999/xlink" width="135px" height="65px" xmlns="http://www.w3.org/2000/svg">
  <g transform="matrix(1 0 0 1 -472 -153 )">
    <path d="M 473 163  A 9 9 0 0 1 482 154 L 597 154  A 9 9 0 0 1 606 163 L 606 208  A 9 9 0 0 1 597 217 L 482 217  A 9 9 0 0 1 473 208 L 473 163  Z " fill-rule="nonzero" fill="#f2f2f2" stroke="none" fill-opacity="0.0431372549019608" />
    <path d="M 472.5 163  A 9.5 9.5 0 0 1 482 153.5 L 597 153.5  A 9.5 9.5 0 0 1 606.5 163 L 606.5 208  A 9.5 9.5 0 0 1 597 217.5 L 482 217.5  A 9.5 9.5 0 0 1 472.5 208 L 472.5 163  Z " stroke-width="1" stroke-dasharray="3,1" stroke="#b8741a" fill="none" stroke-dashoffset="0.5" />
  </g>
</svg>