<?xml version="1.0" encoding="utf-8"?>
<svg version="1.1" xmlns:xlink="http://www.w3.org/1999/xlink" width="153px" height="41px" xmlns="http://www.w3.org/2000/svg">
  <g transform="matrix(1 0 0 1 -643 -113 )">
    <path d="M 644 123  A 9 9 0 0 1 653 114 L 786 114  A 9 9 0 0 1 795 123 L 795 144  A 9 9 0 0 1 786 153 L 653 153  A 9 9 0 0 1 644 144 L 644 123  Z " fill-rule="nonzero" fill="#f2f2f2" stroke="none" fill-opacity="0.0431372549019608" />
    <path d="M 643.5 123  A 9.5 9.5 0 0 1 653 113.5 L 786 113.5  A 9.5 9.5 0 0 1 795.5 123 L 795.5 144  A 9.5 9.5 0 0 1 786 153.5 L 653 153.5  A 9.5 9.5 0 0 1 643.5 144 L 643.5 123  Z " stroke-width="1" stroke-dasharray="3,1" stroke="#b8741a" fill="none" stroke-dashoffset="0.5" />
  </g>
</svg>