<?xml version="1.0" encoding="utf-8"?>
<svg version="1.1" xmlns:xlink="http://www.w3.org/1999/xlink" width="42px" height="43px" xmlns="http://www.w3.org/2000/svg">
  <g transform="matrix(1 0 0 1 -763 -367 )">
    <path d="M 764 377  A 9 9 0 0 1 773 368 L 795 368  A 9 9 0 0 1 804 377 L 804 400  A 9 9 0 0 1 795 409 L 773 409  A 9 9 0 0 1 764 400 L 764 377  Z " fill-rule="nonzero" fill="#f2f2f2" stroke="none" fill-opacity="0.0431372549019608" />
    <path d="M 763.5 377  A 9.5 9.5 0 0 1 773 367.5 L 795 367.5  A 9.5 9.5 0 0 1 804.5 377 L 804.5 400  A 9.5 9.5 0 0 1 795 409.5 L 773 409.5  A 9.5 9.5 0 0 1 763.5 400 L 763.5 377  Z " stroke-width="1" stroke-dasharray="3,1" stroke="#b8741a" fill="none" stroke-dashoffset="0.5" />
  </g>
</svg>