<?xml version="1.0" encoding="utf-8"?>
<svg version="1.1" xmlns:xlink="http://www.w3.org/1999/xlink" width="12px" height="12px" viewBox="457 293  12 12" xmlns="http://www.w3.org/2000/svg">
  <path d="M 463 293  C 466.36 293  469 295.64  469 299  C 469 302.36  466.36 305  463 305  C 459.64 305  457 302.36  457 299  C 457 295.64  459.64 293  463 293  Z " fill-rule="nonzero" fill="#f0f0f0" stroke="none" />
  <path d="M 463 293.5  C 466.08 293.5  468.5 295.92  468.5 299  C 468.5 302.08  466.08 304.5  463 304.5  C 459.92 304.5  457.5 302.08  457.5 299  C 457.5 295.92  459.92 293.5  463 293.5  Z " stroke-width="1" stroke="#797979" fill="none" />
  <path d="M 463 302  C 461.32 302  460 300.68  460 299  C 460 297.32  461.32 296  463 296  C 464.68 296  466 297.32  466 299  C 466 300.68  464.68 302  463 302  " fill-rule="nonzero" fill="#797979" stroke="none" />
</svg>