<?xml version="1.0" encoding="utf-8"?>
<svg version="1.1" xmlns:xlink="http://www.w3.org/1999/xlink" width="18px" height="17px" xmlns="http://www.w3.org/2000/svg">
  <g transform="matrix(1 0 0 1 -1289 -468 )">
    <path d="M 1298 468  C 1303.04 468  1307 471.74  1307 476.5  C 1307 481.26  1303.04 485  1298 485  C 1292.96 485  1289 481.26  1289 476.5  C 1289 471.74  1292.96 468  1298 468  Z " fill-rule="nonzero" fill="#ffffff" stroke="none" />
    <path d="M 1298 468.5  C 1302.76 468.5  1306.5 472.02  1306.5 476.5  C 1306.5 480.98  1302.76 484.5  1298 484.5  C 1293.24 484.5  1289.5 480.98  1289.5 476.5  C 1289.5 472.02  1293.24 468.5  1298 468.5  Z " stroke-width="1" stroke="#d7d7d7" fill="none" />
  </g>
</svg>