<?xml version="1.0" encoding="utf-8"?>
<svg version="1.1" xmlns:xlink="http://www.w3.org/1999/xlink" width="17px" height="17px" xmlns="http://www.w3.org/2000/svg">
  <g transform="matrix(1 0 0 1 -1291 -271 )">
    <path d="M 1299.5 271  C 1304.26 271  1308 274.74  1308 279.5  C 1308 284.26  1304.26 288  1299.5 288  C 1294.74 288  1291 284.26  1291 279.5  C 1291 274.74  1294.74 271  1299.5 271  Z " fill-rule="nonzero" fill="#ffffff" stroke="none" />
    <path d="M 1299.5 271.5  C 1303.98 271.5  1307.5 275.02  1307.5 279.5  C 1307.5 283.98  1303.98 287.5  1299.5 287.5  C 1295.02 287.5  1291.5 283.98  1291.5 279.5  C 1291.5 275.02  1295.02 271.5  1299.5 271.5  Z " stroke-width="1" stroke="#d7d7d7" fill="none" />
  </g>
</svg>