<?xml version="1.0" encoding="utf-8"?>
<svg version="1.1" xmlns:xlink="http://www.w3.org/1999/xlink" width="113px" height="36px" xmlns="http://www.w3.org/2000/svg">
  <g transform="matrix(1 0 0 1 -960 -303 )">
    <path d="M 961 313  A 9 9 0 0 1 970 304 L 1063 304  A 9 9 0 0 1 1072 313 L 1072 329  A 9 9 0 0 1 1063 338 L 970 338  A 9 9 0 0 1 961 329 L 961 313  Z " fill-rule="nonzero" fill="#f2f2f2" stroke="none" fill-opacity="0.0431372549019608" />
    <path d="M 960.5 313  A 9.5 9.5 0 0 1 970 303.5 L 1063 303.5  A 9.5 9.5 0 0 1 1072.5 313 L 1072.5 329  A 9.5 9.5 0 0 1 1063 338.5 L 970 338.5  A 9.5 9.5 0 0 1 960.5 329 L 960.5 313  Z " stroke-width="1" stroke-dasharray="3,1" stroke="#b8741a" fill="none" stroke-dashoffset="0.5" />
  </g>
</svg>