<?xml version="1.0" encoding="utf-8"?>
<svg version="1.1" xmlns:xlink="http://www.w3.org/1999/xlink" width="265px" height="31px" xmlns="http://www.w3.org/2000/svg">
  <g transform="matrix(1 0 0 1 -245 -202 )">
    <path d="M 246 212  A 9 9 0 0 1 255 203 L 500 203  A 9 9 0 0 1 509 212 L 509 223  A 9 9 0 0 1 500 232 L 255 232  A 9 9 0 0 1 246 223 L 246 212  Z " fill-rule="nonzero" fill="#f2f2f2" stroke="none" fill-opacity="0.0431372549019608" />
    <path d="M 245.5 212  A 9.5 9.5 0 0 1 255 202.5 L 500 202.5  A 9.5 9.5 0 0 1 509.5 212 L 509.5 223  A 9.5 9.5 0 0 1 500 232.5 L 255 232.5  A 9.5 9.5 0 0 1 245.5 223 L 245.5 212  Z " stroke-width="1" stroke-dasharray="3,1" stroke="#b8741a" fill="none" stroke-dashoffset="0.5" />
  </g>
</svg>