<?xml version="1.0" encoding="utf-8"?>
<svg version="1.1" xmlns:xlink="http://www.w3.org/1999/xlink" width="32px" height="35px" xmlns="http://www.w3.org/2000/svg">
  <defs>
    <filter x="522px" y="201px" width="32px" height="35px" filterUnits="userSpaceOnUse" id="filter37">
      <feOffset dx="1" dy="1" in="SourceAlpha" result="shadowOffsetInner" />
      <feGaussianBlur stdDeviation="2.5" in="shadowOffsetInner" result="shadowGaussian" />
      <feComposite in2="shadowGaussian" operator="atop" in="SourceAlpha" result="shadowComposite" />
      <feColorMatrix type="matrix" values="0 0 0 0 0  0 0 0 0 0  0 0 0 0 0  0 0 0 0.698039215686274 0  " in="shadowComposite" />
    </filter>
    <g id="widget38">
      <path d="M 537 205  C 543.16 205  548 210.5  548 217.5  C 548 224.5  543.16 230  537 230  C 530.84 230  526 224.5  526 217.5  C 526 210.5  530.84 205  537 205  Z " fill-rule="nonzero" fill="#b8741a" stroke="none" />
      <path d="M 537 205.5  C 542.88 205.5  547.5 210.78  547.5 217.5  C 547.5 224.22  542.88 229.5  537 229.5  C 531.12 229.5  526.5 224.22  526.5 217.5  C 526.5 210.78  531.12 205.5  537 205.5  Z " stroke-width="1" stroke="#ffffff" fill="none" />
    </g>
  </defs>
  <g transform="matrix(1 0 0 1 -522 -201 )">
    <use xlink:href="#widget38" filter="url(#filter37)" />
    <use xlink:href="#widget38" />
  </g>
</svg>