<?xml version="1.0" encoding="utf-8"?>
<svg version="1.1" xmlns:xlink="http://www.w3.org/1999/xlink" width="890px" height="41px" xmlns="http://www.w3.org/2000/svg">
  <g transform="matrix(1 0 0 1 -245 -240 )">
    <path d="M 246 250  A 9 9 0 0 1 255 241 L 1125 241  A 9 9 0 0 1 1134 250 L 1134 271  A 9 9 0 0 1 1125 280 L 255 280  A 9 9 0 0 1 246 271 L 246 250  Z " fill-rule="nonzero" fill="#f2f2f2" stroke="none" fill-opacity="0.0431372549019608" />
    <path d="M 245.5 250  A 9.5 9.5 0 0 1 255 240.5 L 1125 240.5  A 9.5 9.5 0 0 1 1134.5 250 L 1134.5 271  A 9.5 9.5 0 0 1 1125 280.5 L 255 280.5  A 9.5 9.5 0 0 1 245.5 271 L 245.5 250  Z " stroke-width="1" stroke-dasharray="3,1" stroke="#b8741a" fill="none" stroke-dashoffset="0.5" />
  </g>
</svg>