<?xml version="1.0" encoding="utf-8"?>
<svg version="1.1" xmlns:xlink="http://www.w3.org/1999/xlink" width="12px" height="12px" viewBox="179 301  12 12" xmlns="http://www.w3.org/2000/svg">
  <path d="M 185 301  C 188.36 301  191 303.64  191 307  C 191 310.36  188.36 313  185 313  C 181.64 313  179 310.36  179 307  C 179 303.64  181.64 301  185 301  Z " fill-rule="nonzero" fill="#ffffff" stroke="none" />
  <path d="M 185 301.5  C 188.08 301.5  190.5 303.92  190.5 307  C 190.5 310.08  188.08 312.5  185 312.5  C 181.92 312.5  179.5 310.08  179.5 307  C 179.5 303.92  181.92 301.5  185 301.5  Z " stroke-width="1" stroke="#797979" fill="none" />
  <path d="M 185 310  C 183.32 310  182 308.68  182 307  C 182 305.32  183.32 304  185 304  C 186.68 304  188 305.32  188 307  C 188 308.68  186.68 310  185 310  " fill-rule="nonzero" fill="#797979" stroke="none" />
</svg>