<?xml version="1.0" encoding="utf-8"?>
<svg version="1.1" xmlns:xlink="http://www.w3.org/1999/xlink" width="268px" height="157px" xmlns="http://www.w3.org/2000/svg">
  <g transform="matrix(1 0 0 1 -13 -71 )">
    <path d="M 14 81  A 9 9 0 0 1 23 72 L 271 72  A 9 9 0 0 1 280 81 L 280 218  A 9 9 0 0 1 271 227 L 23 227  A 9 9 0 0 1 14 218 L 14 81  Z " fill-rule="nonzero" fill="#f2f2f2" stroke="none" fill-opacity="0.0431372549019608" />
    <path d="M 13.5 81  A 9.5 9.5 0 0 1 23 71.5 L 271 71.5  A 9.5 9.5 0 0 1 280.5 81 L 280.5 218  A 9.5 9.5 0 0 1 271 227.5 L 23 227.5  A 9.5 9.5 0 0 1 13.5 218 L 13.5 81  Z " stroke-width="1" stroke-dasharray="3,1" stroke="#b8741a" fill="none" stroke-dashoffset="0.5" />
  </g>
</svg>