<?xml version="1.0" encoding="utf-8"?>
<svg version="1.1" xmlns:xlink="http://www.w3.org/1999/xlink" width="234px" height="513px" xmlns="http://www.w3.org/2000/svg">
  <g transform="matrix(1 0 0 1 -632 -66 )">
    <path d="M 633 76  A 9 9 0 0 1 642 67 L 856 67  A 9 9 0 0 1 865 76 L 865 569  A 9 9 0 0 1 856 578 L 642 578  A 9 9 0 0 1 633 569 L 633 76  Z " fill-rule="nonzero" fill="#f2f2f2" stroke="none" fill-opacity="0.0431372549019608" />
    <path d="M 632.5 76  A 9.5 9.5 0 0 1 642 66.5 L 856 66.5  A 9.5 9.5 0 0 1 865.5 76 L 865.5 569  A 9.5 9.5 0 0 1 856 578.5 L 642 578.5  A 9.5 9.5 0 0 1 632.5 569 L 632.5 76  Z " stroke-width="1" stroke-dasharray="3,1" stroke="#b8741a" fill="none" stroke-dashoffset="0.5" />
  </g>
</svg>