<?xml version="1.0" encoding="utf-8"?>
<svg version="1.1" xmlns:xlink="http://www.w3.org/1999/xlink" width="396px" height="26px" xmlns="http://www.w3.org/2000/svg">
  <g transform="matrix(1 0 0 1 -238 -204 )">
    <path d="M 239 214  A 9 9 0 0 1 248 205 L 624 205  A 9 9 0 0 1 633 214 L 633 220  A 9 9 0 0 1 624 229 L 248 229  A 9 9 0 0 1 239 220 L 239 214  Z " fill-rule="nonzero" fill="#f2f2f2" stroke="none" fill-opacity="0.0431372549019608" />
    <path d="M 238.5 214  A 9.5 9.5 0 0 1 248 204.5 L 624 204.5  A 9.5 9.5 0 0 1 633.5 214 L 633.5 220  A 9.5 9.5 0 0 1 624 229.5 L 248 229.5  A 9.5 9.5 0 0 1 238.5 220 L 238.5 214  Z " stroke-width="1" stroke-dasharray="3,1" stroke="#b8741a" fill="none" stroke-dashoffset="0.5" />
  </g>
</svg>