<?xml version="1.0" encoding="utf-8"?>
<svg version="1.1" xmlns:xlink="http://www.w3.org/1999/xlink" width="553px" height="163px" xmlns="http://www.w3.org/2000/svg">
  <g transform="matrix(1 0 0 1 -247 -248 )">
    <path d="M 248 258  A 9 9 0 0 1 257 249 L 790 249  A 9 9 0 0 1 799 258 L 799 401  A 9 9 0 0 1 790 410 L 257 410  A 9 9 0 0 1 248 401 L 248 258  Z " fill-rule="nonzero" fill="#f2f2f2" stroke="none" fill-opacity="0.0431372549019608" />
    <path d="M 247.5 258  A 9.5 9.5 0 0 1 257 248.5 L 790 248.5  A 9.5 9.5 0 0 1 799.5 258 L 799.5 401  A 9.5 9.5 0 0 1 790 410.5 L 257 410.5  A 9.5 9.5 0 0 1 247.5 401 L 247.5 258  Z " stroke-width="1" stroke-dasharray="3,1" stroke="#b8741a" fill="none" stroke-dashoffset="0.5" />
  </g>
</svg>