<?xml version="1.0" encoding="utf-8"?>
<svg version="1.1" xmlns:xlink="http://www.w3.org/1999/xlink" width="930px" height="230px" xmlns="http://www.w3.org/2000/svg">
  <g transform="matrix(1 0 0 1 -1132 -227 )">
    <path d="M 1133 237  A 9 9 0 0 1 1142 228 L 2052 228  A 9 9 0 0 1 2061 237 L 2061 447  A 9 9 0 0 1 2052 456 L 1142 456  A 9 9 0 0 1 1133 447 L 1133 237  Z " fill-rule="nonzero" fill="#f2f2f2" stroke="none" fill-opacity="0.0431372549019608" />
    <path d="M 1132.5 237  A 9.5 9.5 0 0 1 1142 227.5 L 2052 227.5  A 9.5 9.5 0 0 1 2061.5 237 L 2061.5 447  A 9.5 9.5 0 0 1 2052 456.5 L 1142 456.5  A 9.5 9.5 0 0 1 1132.5 447 L 1132.5 237  Z " stroke-width="1" stroke-dasharray="3,1" stroke="#b8741a" fill="none" stroke-dashoffset="0.5" />
  </g>
</svg>