<?xml version="1.0" encoding="utf-8"?>
<svg version="1.1" xmlns:xlink="http://www.w3.org/1999/xlink" width="553px" height="133px" xmlns="http://www.w3.org/2000/svg">
  <g transform="matrix(1 0 0 1 -249 -477 )">
    <path d="M 250 487  A 9 9 0 0 1 259 478 L 792 478  A 9 9 0 0 1 801 487 L 801 600  A 9 9 0 0 1 792 609 L 259 609  A 9 9 0 0 1 250 600 L 250 487  Z " fill-rule="nonzero" fill="#f2f2f2" stroke="none" fill-opacity="0.0431372549019608" />
    <path d="M 249.5 487  A 9.5 9.5 0 0 1 259 477.5 L 792 477.5  A 9.5 9.5 0 0 1 801.5 487 L 801.5 600  A 9.5 9.5 0 0 1 792 609.5 L 259 609.5  A 9.5 9.5 0 0 1 249.5 600 L 249.5 487  Z " stroke-width="1" stroke-dasharray="3,1" stroke="#b8741a" fill="none" stroke-dashoffset="0.5" />
  </g>
</svg>