<?xml version="1.0" encoding="utf-8"?>
<svg version="1.1" xmlns:xlink="http://www.w3.org/1999/xlink" width="858px" height="507px" xmlns="http://www.w3.org/2000/svg">
  <g transform="matrix(1 0 0 1 -246 -619 )">
    <path d="M 247 629  A 9 9 0 0 1 256 620 L 1094 620  A 9 9 0 0 1 1103 629 L 1103 1116  A 9 9 0 0 1 1094 1125 L 256 1125  A 9 9 0 0 1 247 1116 L 247 629  Z " fill-rule="nonzero" fill="#f2f2f2" stroke="none" fill-opacity="0.0431372549019608" />
    <path d="M 246.5 629  A 9.5 9.5 0 0 1 256 619.5 L 1094 619.5  A 9.5 9.5 0 0 1 1103.5 629 L 1103.5 1116  A 9.5 9.5 0 0 1 1094 1125.5 L 256 1125.5  A 9.5 9.5 0 0 1 246.5 1116 L 246.5 629  Z " stroke-width="1" stroke-dasharray="3,1" stroke="#b8741a" fill="none" stroke-dashoffset="0.5" />
  </g>
</svg>