<?xml version="1.0" encoding="utf-8"?>
<svg version="1.1" xmlns:xlink="http://www.w3.org/1999/xlink" width="131px" height="36px" xmlns="http://www.w3.org/2000/svg">
  <g transform="matrix(1 0 0 1 -600 -1129 )">
    <path d="M 601 1139  A 9 9 0 0 1 610 1130 L 721 1130  A 9 9 0 0 1 730 1139 L 730 1155  A 9 9 0 0 1 721 1164 L 610 1164  A 9 9 0 0 1 601 1155 L 601 1139  Z " fill-rule="nonzero" fill="#f2f2f2" stroke="none" fill-opacity="0.0431372549019608" />
    <path d="M 600.5 1139  A 9.5 9.5 0 0 1 610 1129.5 L 721 1129.5  A 9.5 9.5 0 0 1 730.5 1139 L 730.5 1155  A 9.5 9.5 0 0 1 721 1164.5 L 610 1164.5  A 9.5 9.5 0 0 1 600.5 1155 L 600.5 1139  Z " stroke-width="1" stroke-dasharray="3,1" stroke="#b8741a" fill="none" stroke-dashoffset="0.5" />
  </g>
</svg>