<?xml version="1.0" encoding="utf-8"?>
<svg version="1.1" xmlns:xlink="http://www.w3.org/1999/xlink" width="1087px" height="40px" xmlns="http://www.w3.org/2000/svg">
  <g transform="matrix(1 0 0 1 -281 -121 )">
    <path d="M 282 131  A 9 9 0 0 1 291 122 L 1358 122  A 9 9 0 0 1 1367 131 L 1367 151  A 9 9 0 0 1 1358 160 L 291 160  A 9 9 0 0 1 282 151 L 282 131  Z " fill-rule="nonzero" fill="#f2f2f2" stroke="none" fill-opacity="0.0431372549019608" />
    <path d="M 281.5 131  A 9.5 9.5 0 0 1 291 121.5 L 1358 121.5  A 9.5 9.5 0 0 1 1367.5 131 L 1367.5 151  A 9.5 9.5 0 0 1 1358 160.5 L 291 160.5  A 9.5 9.5 0 0 1 281.5 151 L 281.5 131  Z " stroke-width="1" stroke-dasharray="3,1" stroke="#b8741a" fill="none" stroke-dashoffset="0.5" />
  </g>
</svg>