<?xml version="1.0" encoding="utf-8"?>
<svg version="1.1" xmlns:xlink="http://www.w3.org/1999/xlink" width="215px" height="27px" xmlns="http://www.w3.org/2000/svg">
  <g transform="matrix(1 0 0 1 -53 -172 )">
    <path d="M 54 182  A 9 9 0 0 1 63 173 L 258 173  A 9 9 0 0 1 267 182 L 267 189  A 9 9 0 0 1 258 198 L 63 198  A 9 9 0 0 1 54 189 L 54 182  Z " fill-rule="nonzero" fill="#f2f2f2" stroke="none" fill-opacity="0.0431372549019608" />
    <path d="M 53.5 182  A 9.5 9.5 0 0 1 63 172.5 L 258 172.5  A 9.5 9.5 0 0 1 267.5 182 L 267.5 189  A 9.5 9.5 0 0 1 258 198.5 L 63 198.5  A 9.5 9.5 0 0 1 53.5 189 L 53.5 182  Z " stroke-width="1" stroke-dasharray="3,1" stroke="#b8741a" fill="none" stroke-dashoffset="0.5" />
  </g>
</svg>