<?xml version="1.0" encoding="utf-8"?>
<svg version="1.1" xmlns:xlink="http://www.w3.org/1999/xlink" width="1031px" height="90px" xmlns="http://www.w3.org/2000/svg">
  <g transform="matrix(1 0 0 1 -289 -214 )">
    <path d="M 290 224  A 9 9 0 0 1 299 215 L 1310 215  A 9 9 0 0 1 1319 224 L 1319 294  A 9 9 0 0 1 1310 303 L 299 303  A 9 9 0 0 1 290 294 L 290 224  Z " fill-rule="nonzero" fill="#f2f2f2" stroke="none" fill-opacity="0.0431372549019608" />
    <path d="M 289.5 224  A 9.5 9.5 0 0 1 299 214.5 L 1310 214.5  A 9.5 9.5 0 0 1 1319.5 224 L 1319.5 294  A 9.5 9.5 0 0 1 1310 303.5 L 299 303.5  A 9.5 9.5 0 0 1 289.5 294 L 289.5 224  Z " stroke-width="1" stroke-dasharray="3,1" stroke="#b8741a" fill="none" stroke-dashoffset="0.5" />
  </g>
</svg>