<?xml version="1.0" encoding="utf-8"?>
<svg version="1.1" xmlns:xlink="http://www.w3.org/1999/xlink" width="238px" height="35px" xmlns="http://www.w3.org/2000/svg">
  <g transform="matrix(1 0 0 1 -1082 -536 )">
    <path d="M 1083 546  A 9 9 0 0 1 1092 537 L 1310 537  A 9 9 0 0 1 1319 546 L 1319 561  A 9 9 0 0 1 1310 570 L 1092 570  A 9 9 0 0 1 1083 561 L 1083 546  Z " fill-rule="nonzero" fill="#f2f2f2" stroke="none" fill-opacity="0.0431372549019608" />
    <path d="M 1082.5 546  A 9.5 9.5 0 0 1 1092 536.5 L 1310 536.5  A 9.5 9.5 0 0 1 1319.5 546 L 1319.5 561  A 9.5 9.5 0 0 1 1310 570.5 L 1092 570.5  A 9.5 9.5 0 0 1 1082.5 561 L 1082.5 546  Z " stroke-width="1" stroke-dasharray="3,1" stroke="#b8741a" fill="none" stroke-dashoffset="0.5" />
  </g>
</svg>