<?xml version="1.0" encoding="utf-8"?>
<svg version="1.1" xmlns:xlink="http://www.w3.org/1999/xlink" width="12px" height="12px" viewBox="278 256  12 12" xmlns="http://www.w3.org/2000/svg">
  <path d="M 284 256  C 287.36 256  290 258.64  290 262  C 290 265.36  287.36 268  284 268  C 280.64 268  278 265.36  278 262  C 278 258.64  280.64 256  284 256  Z " fill-rule="nonzero" fill="#ffffff" stroke="none" />
  <path d="M 284 256.5  C 287.08 256.5  289.5 258.92  289.5 262  C 289.5 265.08  287.08 267.5  284 267.5  C 280.92 267.5  278.5 265.08  278.5 262  C 278.5 258.92  280.92 256.5  284 256.5  Z " stroke-width="1" stroke="#797979" fill="none" />
  <path d="M 284 265  C 282.32 265  281 263.68  281 262  C 281 260.32  282.32 259  284 259  C 285.68 259  287 260.32  287 262  C 287 263.68  285.68 265  284 265  " fill-rule="nonzero" fill="#797979" stroke="none" />
</svg>