<?xml version="1.0" encoding="utf-8"?>
<svg version="1.1" xmlns:xlink="http://www.w3.org/1999/xlink" width="12px" height="12px" viewBox="378 256  12 12" xmlns="http://www.w3.org/2000/svg">
  <path d="M 384 256  C 387.36 256  390 258.64  390 262  C 390 265.36  387.36 268  384 268  C 380.64 268  378 265.36  378 262  C 378 258.64  380.64 256  384 256  Z " fill-rule="nonzero" fill="#ffffff" stroke="none" />
  <path d="M 384 256.5  C 387.08 256.5  389.5 258.92  389.5 262  C 389.5 265.08  387.08 267.5  384 267.5  C 380.92 267.5  378.5 265.08  378.5 262  C 378.5 258.92  380.92 256.5  384 256.5  Z " stroke-width="1" stroke="#797979" fill="none" />
  <path d="M 384 265  C 382.32 265  381 263.68  381 262  C 381 260.32  382.32 259  384 259  C 385.68 259  387 260.32  387 262  C 387 263.68  385.68 265  384 265  " fill-rule="nonzero" fill="#797979" stroke="none" />
</svg>