<?xml version="1.0" encoding="utf-8"?>
<svg version="1.1" xmlns:xlink="http://www.w3.org/1999/xlink" width="69px" height="164px" xmlns="http://www.w3.org/2000/svg">
  <g transform="matrix(1 0 0 1 -238 -297 )">
    <path d="M 239 307  A 9 9 0 0 1 248 298 L 297 298  A 9 9 0 0 1 306 307 L 306 451  A 9 9 0 0 1 297 460 L 248 460  A 9 9 0 0 1 239 451 L 239 307  Z " fill-rule="nonzero" fill="#f2f2f2" stroke="none" fill-opacity="0.0431372549019608" />
    <path d="M 238.5 307  A 9.5 9.5 0 0 1 248 297.5 L 297 297.5  A 9.5 9.5 0 0 1 306.5 307 L 306.5 451  A 9.5 9.5 0 0 1 297 460.5 L 248 460.5  A 9.5 9.5 0 0 1 238.5 451 L 238.5 307  Z " stroke-width="1" stroke-dasharray="3,1" stroke="#b8741a" fill="none" stroke-dashoffset="0.5" />
  </g>
</svg>