<?xml version="1.0" encoding="utf-8"?>
<svg version="1.1" xmlns:xlink="http://www.w3.org/1999/xlink" width="234px" height="135px" xmlns="http://www.w3.org/2000/svg">
  <g transform="matrix(1 0 0 1 -854 -294 )">
    <path d="M 855 304  A 9 9 0 0 1 864 295 L 1078 295  A 9 9 0 0 1 1087 304 L 1087 419  A 9 9 0 0 1 1078 428 L 864 428  A 9 9 0 0 1 855 419 L 855 304  Z " fill-rule="nonzero" fill="#f2f2f2" stroke="none" fill-opacity="0.0431372549019608" />
    <path d="M 854.5 304  A 9.5 9.5 0 0 1 864 294.5 L 1078 294.5  A 9.5 9.5 0 0 1 1087.5 304 L 1087.5 419  A 9.5 9.5 0 0 1 1078 428.5 L 864 428.5  A 9.5 9.5 0 0 1 854.5 419 L 854.5 304  Z " stroke-width="1" stroke-dasharray="3,1" stroke="#b8741a" fill="none" stroke-dashoffset="0.5" />
  </g>
</svg>