<?xml version="1.0" encoding="utf-8"?>
<svg version="1.1" xmlns:xlink="http://www.w3.org/1999/xlink" width="224px" height="38px" xmlns="http://www.w3.org/2000/svg">
  <g transform="matrix(1 0 0 1 -859 -245 )">
    <path d="M 860 255  A 9 9 0 0 1 869 246 L 1073 246  A 9 9 0 0 1 1082 255 L 1082 273  A 9 9 0 0 1 1073 282 L 869 282  A 9 9 0 0 1 860 273 L 860 255  Z " fill-rule="nonzero" fill="#f2f2f2" stroke="none" fill-opacity="0.0431372549019608" />
    <path d="M 859.5 255  A 9.5 9.5 0 0 1 869 245.5 L 1073 245.5  A 9.5 9.5 0 0 1 1082.5 255 L 1082.5 273  A 9.5 9.5 0 0 1 1073 282.5 L 869 282.5  A 9.5 9.5 0 0 1 859.5 273 L 859.5 255  Z " stroke-width="1" stroke-dasharray="3,1" stroke="#b8741a" fill="none" stroke-dashoffset="0.5" />
  </g>
</svg>