<?xml version="1.0" encoding="utf-8"?>
<svg version="1.1" xmlns:xlink="http://www.w3.org/1999/xlink" width="333px" height="31px" xmlns="http://www.w3.org/2000/svg">
  <g transform="matrix(1 0 0 1 -230 -193 )">
    <path d="M 231 203  A 9 9 0 0 1 240 194 L 553 194  A 9 9 0 0 1 562 203 L 562 214  A 9 9 0 0 1 553 223 L 240 223  A 9 9 0 0 1 231 214 L 231 203  Z " fill-rule="nonzero" fill="#f2f2f2" stroke="none" fill-opacity="0.0431372549019608" />
    <path d="M 230.5 203  A 9.5 9.5 0 0 1 240 193.5 L 553 193.5  A 9.5 9.5 0 0 1 562.5 203 L 562.5 214  A 9.5 9.5 0 0 1 553 223.5 L 240 223.5  A 9.5 9.5 0 0 1 230.5 214 L 230.5 203  Z " stroke-width="1" stroke-dasharray="3,1" stroke="#b8741a" fill="none" stroke-dashoffset="0.5" />
  </g>
</svg>