<?xml version="1.0" encoding="utf-8"?>
<svg version="1.1" xmlns:xlink="http://www.w3.org/1999/xlink" width="188px" height="401px" xmlns="http://www.w3.org/2000/svg">
  <g transform="matrix(1 0 0 1 -315 -302 )">
    <path d="M 316 312  A 9 9 0 0 1 325 303 L 493 303  A 9 9 0 0 1 502 312 L 502 693  A 9 9 0 0 1 493 702 L 325 702  A 9 9 0 0 1 316 693 L 316 312  Z " fill-rule="nonzero" fill="#f2f2f2" stroke="none" fill-opacity="0.0431372549019608" />
    <path d="M 315.5 312  A 9.5 9.5 0 0 1 325 302.5 L 493 302.5  A 9.5 9.5 0 0 1 502.5 312 L 502.5 693  A 9.5 9.5 0 0 1 493 702.5 L 325 702.5  A 9.5 9.5 0 0 1 315.5 693 L 315.5 312  Z " stroke-width="1" stroke-dasharray="3,1" stroke="#b8741a" fill="none" stroke-dashoffset="0.5" />
  </g>
</svg>