<?xml version="1.0" encoding="utf-8"?>
<svg version="1.1" xmlns:xlink="http://www.w3.org/1999/xlink" width="156px" height="148px" xmlns="http://www.w3.org/2000/svg">
  <g transform="matrix(1 0 0 1 -400 -101 )">
    <path d="M 401 111  A 9 9 0 0 1 410 102 L 546 102  A 9 9 0 0 1 555 111 L 555 239  A 9 9 0 0 1 546 248 L 410 248  A 9 9 0 0 1 401 239 L 401 111  Z " fill-rule="nonzero" fill="#f2f2f2" stroke="none" fill-opacity="0.0431372549019608" />
    <path d="M 400.5 111  A 9.5 9.5 0 0 1 410 101.5 L 546 101.5  A 9.5 9.5 0 0 1 555.5 111 L 555.5 239  A 9.5 9.5 0 0 1 546 248.5 L 410 248.5  A 9.5 9.5 0 0 1 400.5 239 L 400.5 111  Z " stroke-width="1" stroke-dasharray="3,1" stroke="#b8741a" fill="none" stroke-dashoffset="0.5" />
  </g>
</svg>