<?xml version="1.0" encoding="utf-8"?>
<svg version="1.1" xmlns:xlink="http://www.w3.org/1999/xlink" width="179px" height="67px" xmlns="http://www.w3.org/2000/svg">
  <g transform="matrix(1 0 0 1 -656 -209 )">
    <path d="M 657 219  A 9 9 0 0 1 666 210 L 825 210  A 9 9 0 0 1 834 219 L 834 266  A 9 9 0 0 1 825 275 L 666 275  A 9 9 0 0 1 657 266 L 657 219  Z " fill-rule="nonzero" fill="#f2f2f2" stroke="none" fill-opacity="0.0431372549019608" />
    <path d="M 656.5 219  A 9.5 9.5 0 0 1 666 209.5 L 825 209.5  A 9.5 9.5 0 0 1 834.5 219 L 834.5 266  A 9.5 9.5 0 0 1 825 275.5 L 666 275.5  A 9.5 9.5 0 0 1 656.5 266 L 656.5 219  Z " stroke-width="1" stroke-dasharray="3,1" stroke="#b8741a" fill="none" stroke-dashoffset="0.5" />
  </g>
</svg>