<?xml version="1.0" encoding="utf-8"?>
<svg version="1.1" xmlns:xlink="http://www.w3.org/1999/xlink" width="224px" height="305px" xmlns="http://www.w3.org/2000/svg">
  <g transform="matrix(1 0 0 1 -659 -281 )">
    <path d="M 660 291  A 9 9 0 0 1 669 282 L 873 282  A 9 9 0 0 1 882 291 L 882 576  A 9 9 0 0 1 873 585 L 669 585  A 9 9 0 0 1 660 576 L 660 291  Z " fill-rule="nonzero" fill="#f2f2f2" stroke="none" fill-opacity="0.0431372549019608" />
    <path d="M 659.5 291  A 9.5 9.5 0 0 1 669 281.5 L 873 281.5  A 9.5 9.5 0 0 1 882.5 291 L 882.5 576  A 9.5 9.5 0 0 1 873 585.5 L 669 585.5  A 9.5 9.5 0 0 1 659.5 576 L 659.5 291  Z " stroke-width="1" stroke-dasharray="3,1" stroke="#b8741a" fill="none" stroke-dashoffset="0.5" />
  </g>
</svg>