<?xml version="1.0" encoding="utf-8"?>
<svg version="1.1" xmlns:xlink="http://www.w3.org/1999/xlink" width="718px" height="470px" xmlns="http://www.w3.org/2000/svg">
  <g transform="matrix(1 0 0 1 -181 -672 )">
    <path d="M 182 682  A 9 9 0 0 1 191 673 L 889 673  A 9 9 0 0 1 898 682 L 898 1132  A 9 9 0 0 1 889 1141 L 191 1141  A 9 9 0 0 1 182 1132 L 182 682  Z " fill-rule="nonzero" fill="#f2f2f2" stroke="none" fill-opacity="0.0431372549019608" />
    <path d="M 181.5 682  A 9.5 9.5 0 0 1 191 672.5 L 889 672.5  A 9.5 9.5 0 0 1 898.5 682 L 898.5 1132  A 9.5 9.5 0 0 1 889 1141.5 L 191 1141.5  A 9.5 9.5 0 0 1 181.5 1132 L 181.5 682  Z " stroke-width="1" stroke-dasharray="3,1" stroke="#b8741a" fill="none" stroke-dashoffset="0.5" />
  </g>
</svg>